<svg xmlns="http://www.w3.org/2000/svg" viewBox="0 0 600 466" font-family="Helvetica,Arial,sans-serif">
<text x="300.0" y="28" text-anchor="middle" font-size="20" font-weight="bold" fill="#222">Scoring Round — total stars</text>
<text x="100" y="77.0" text-anchor="end" font-size="15" font-weight="bold" fill="#222">Dog</text>
<rect x="110" y="50" width="430.0" height="44" rx="3" fill="#44bcc9"/>
<text x="530.0" y="77.0" text-anchor="end" font-size="15" font-weight="bold" fill="#222">1798</text>
<text x="100" y="135.0" text-anchor="end" font-size="15" font-weight="bold" fill="#222">Cat</text>
<rect x="110" y="108" width="416.4" height="44" rx="3" fill="#84c441"/>
<text x="516.4" y="135.0" text-anchor="end" font-size="15" font-weight="bold" fill="#222">1741</text>
<text x="100" y="193.0" text-anchor="end" font-size="15" font-weight="bold" fill="#222">Bird</text>
<rect x="110" y="166" width="231.7" height="44" rx="3" fill="#b6d637"/>
<text x="331.7" y="193.0" text-anchor="end" font-size="15" font-weight="bold" fill="#222">969</text>
<text x="100" y="251.0" text-anchor="end" font-size="15" font-weight="bold" fill="#222">Rabbit</text>
<rect x="110" y="224" width="228.2" height="44" rx="3" fill="#44bcc9"/>
<text x="328.2" y="251.0" text-anchor="end" font-size="15" font-weight="bold" fill="#222">954</text>
<text x="100" y="309.0" text-anchor="end" font-size="15" font-weight="bold" fill="#222">Fish</text>
<rect x="110" y="282" width="204.2" height="44" rx="3" fill="#84c441"/>
<text x="304.2" y="309.0" text-anchor="end" font-size="15" font-weight="bold" fill="#222">854</text>
<text x="100" y="367.0" text-anchor="end" font-size="15" font-weight="bold" fill="#222">Rat</text>
<rect x="110" y="340" width="138.7" height="44" rx="3" fill="#b6d637"/>
<text x="238.7" y="367.0" text-anchor="end" font-size="15" font-weight="bold" fill="#222">580</text>
<text x="100" y="425.0" text-anchor="end" font-size="15" font-weight="bold" fill="#222">Python</text>
<rect x="110" y="398" width="105.2" height="44" rx="3" fill="#44bcc9"/>
<text x="205.2" y="425.0" text-anchor="end" font-size="15" font-weight="bold" fill="#222">440</text>
</svg>
